# xmcd
#
# Track frame offsets:
#	150
#	9257
#	20635
#	31620
#	43682
#	55380
#	68790
#	79554
#	91042
#	101505
#	114412
#	126354
#	137895
#	149650
#	161130
#	170002
#	182972
#	196367
#	209617
#	219092
#	229060
#	239505
#	251350
#	261610
#
# Disc length: 3630
#
# Revision: 5
# Processed by: cddbd v1.5.1PL0 Copyright (c) Steve Scherf et al.
# Submitted via: audiograbber 1.81.03
# Normalized: r4:DSETVAR1
#
DISCID=5b0e2c18
DTITLE=Various Artist - Country USA - 1957
DYEAR=1957
DGENRE=Country
TTITLE0=Webb Pierce - Honky Tonk Song
TTITLE1=Marty Robbins - A White Sport Coat (And A Pink Carnation)
TTITLE2=Carl Perkins - Dixie Fried
TTITLE3=Johnny Cash - Home Of The Blues
TTITLE4=Patsy Cline - Walking After Midnight
TTITLE5=Bobby Helms - My Special Angel
TTITLE6=The Everly Brothers - Bye Bye Love
TTITLE7=Marvin Rainwater - Gonna Find Me A Bluebird
TTITLE8=Jimmy "C" Newman - A Fallen Star
TTITLE9=Jim Reeves - Four Walls
TTITLE10=Kitty Wells - Repenting
TTITLE11=Marty Robbins - The Story Of My Life
TTITLE12=Ray Price - My Shoes Keep Walking Back To You
TTITLE13=Sonny James - Young Love
TTITLE14=Webb Pierce - I'm Tired
TTITLE15=Bobby Helms - Fraulein
TTITLE16=Jimmie Skinner - I Found My Girl In The U.S.A.
TTITLE17=Jerry Lee Lewis - You Win Again
TTITLE18=Johnny Horton - I'm Comming Home
TTITLE19=Marty Robbins - Knee Deep In The Blues
TTITLE20=Jim Reeves - Am I Losing You?
TTITLE21=Hank Snow - Tangled Mind
TTITLE22=Jimmie Rodgers - Honeycomb
TTITLE23=Ferlin Husky - Gone
EXTD=
EXTT0=
EXTT1=
EXTT2=
EXTT3=
EXTT4=
EXTT5=
EXTT6=
EXTT7=
EXTT8=
EXTT9=
EXTT10=
EXTT11=
EXTT12=
EXTT13=
EXTT14=
EXTT15=
EXTT16=
EXTT17=
EXTT18=
EXTT19=
EXTT20=
EXTT21=
EXTT22=
EXTT23=
PLAYORDER=
